<svg width="34" height="30" viewBox="0 0 34 30" fill="none" xmlns="http://www.w3.org/2000/svg">
<g clip-path="url(#clip0)">
<path d="M13.5938 13.8984C15.457 13.0078 16.4297 11.6602 16.4297 9.5625C16.4297 5.42578 13.3477 4.41797 9.79102 4.41797H0V25.1836H10.0664C13.8398 25.1836 17.3848 23.373 17.3848 19.1543C17.3848 16.5469 16.1484 14.6191 13.5938 13.8984ZM4.56445 7.96289H8.84766C10.4941 7.96289 11.9766 8.42578 11.9766 10.3359C11.9766 12.0996 10.8223 12.8086 9.19336 12.8086H4.56445V7.96289ZM9.44531 21.6562H4.56445V15.9375H9.53906C11.5488 15.9375 12.8203 16.7754 12.8203 18.9023C12.8203 21 11.3027 21.6562 9.44531 21.6562ZM30.4512 7.55273H22.0312V5.50781H30.4512V7.55273ZM33.75 17.8828C33.75 13.4355 31.1484 9.72656 26.4316 9.72656C21.8496 9.72656 18.7383 13.1719 18.7383 17.6836C18.7383 22.3652 21.6855 25.5762 26.4316 25.5762C30.0234 25.5762 32.3496 23.959 33.4688 20.5195H29.8242C29.4316 21.8027 27.8145 22.4824 26.5605 22.4824C24.1406 22.4824 22.8691 21.0645 22.8691 18.6562H33.7148C33.7324 18.4102 33.75 18.1465 33.75 17.8828ZM22.875 16.0547C23.0098 14.0801 24.3223 12.8437 26.3027 12.8437C28.377 12.8437 29.4199 14.0625 29.5957 16.0547H22.875Z" fill="black"/>
</g>
<defs>
<clipPath id="clip0">
<rect width="33.75" height="30" fill="white"/>
</clipPath>
</defs>
</svg>
