<svg width="30" height="30" viewBox="0 0 30 30" fill="none" xmlns="http://www.w3.org/2000/svg">
<g clip-path="url(#clip0)">
<path d="M9.7302 24.0112C9.7302 24.1284 9.59531 24.2222 9.42522 24.2222C9.23167 24.2397 9.09677 24.146 9.09677 24.0112C9.09677 23.894 9.23167 23.8003 9.40176 23.8003C9.57771 23.7827 9.7302 23.8765 9.7302 24.0112ZM7.90616 23.7476C7.8651 23.8647 7.98241 23.9995 8.15836 24.0347C8.31085 24.0933 8.4868 24.0347 8.52199 23.9175C8.55719 23.8003 8.44575 23.6655 8.26979 23.6128C8.1173 23.5718 7.94721 23.6304 7.90616 23.7476ZM10.4985 23.648C10.3284 23.689 10.2111 23.8003 10.2287 23.9351C10.2463 24.0522 10.3988 24.1284 10.5748 24.0874C10.7449 24.0464 10.8622 23.9351 10.8446 23.8179C10.827 23.7065 10.6686 23.6304 10.4985 23.648ZM14.3578 1.19482C6.22287 1.19482 0 7.36475 0 15.4917C0 21.9897 4.09384 27.5503 9.94135 29.5073C10.6921 29.6421 10.956 29.1792 10.956 28.7983C10.956 28.4351 10.9384 26.4312 10.9384 25.2007C10.9384 25.2007 6.83284 26.0796 5.97067 23.4546C5.97067 23.4546 5.30205 21.7495 4.34018 21.3101C4.34018 21.3101 2.99707 20.3901 4.43402 20.4077C4.43402 20.4077 5.89443 20.5249 6.69795 21.9194C7.9824 24.1812 10.1349 23.5308 10.9736 23.144C11.1085 22.2065 11.4897 21.5562 11.912 21.1694C8.63343 20.8062 5.32551 20.3315 5.32551 14.6948C5.32551 13.0835 5.77126 12.2749 6.70968 11.2437C6.55718 10.8628 6.05865 9.29248 6.86217 7.26514C8.08798 6.88428 10.9091 8.84717 10.9091 8.84717C12.0821 8.51904 13.3431 8.34912 14.5924 8.34912C15.8416 8.34912 17.1026 8.51904 18.2757 8.84717C18.2757 8.84717 21.0968 6.87842 22.3226 7.26514C23.1261 9.29834 22.6276 10.8628 22.4751 11.2437C23.4135 12.2808 23.9883 13.0894 23.9883 14.6948C23.9883 20.3491 20.5337 20.8003 17.2551 21.1694C17.7947 21.6323 18.2522 22.5112 18.2522 23.8882C18.2522 25.8628 18.2346 28.3062 18.2346 28.7866C18.2346 29.1675 18.5044 29.6304 19.2493 29.4956C25.1144 27.5503 29.0909 21.9897 29.0909 15.4917C29.0909 7.36475 22.4927 1.19482 14.3578 1.19482ZM5.70088 21.4038C5.62463 21.4624 5.64223 21.5972 5.74194 21.7085C5.83578 21.8022 5.97067 21.8433 6.04692 21.7671C6.12317 21.7085 6.10557 21.5737 6.00587 21.4624C5.91202 21.3687 5.77713 21.3276 5.70088 21.4038ZM5.06745 20.9292C5.02639 21.0054 5.08504 21.0991 5.20235 21.1577C5.29619 21.2163 5.41349 21.1987 5.45455 21.1167C5.4956 21.0405 5.43695 20.9468 5.31965 20.8882C5.20235 20.853 5.1085 20.8706 5.06745 20.9292ZM6.96774 23.0151C6.8739 23.0913 6.90909 23.2671 7.04399 23.3784C7.17889 23.5132 7.34897 23.5308 7.42522 23.437C7.50147 23.3608 7.46628 23.1851 7.34897 23.0737C7.21994 22.939 7.04399 22.9214 6.96774 23.0151ZM6.29912 22.1538C6.20528 22.2124 6.20528 22.3647 6.29912 22.4995C6.39296 22.6343 6.55132 22.6929 6.62757 22.6343C6.72141 22.5581 6.72141 22.4058 6.62757 22.271C6.54545 22.1362 6.39296 22.0776 6.29912 22.1538Z" fill="black"/>
</g>
<defs>
<clipPath id="clip0">
<rect width="29.0909" height="30" fill="white" transform="matrix(1 0 0 -1 0 30)"/>
</clipPath>
</defs>
</svg>
