<svg width="27" height="30" viewBox="0 0 27 30" fill="none" xmlns="http://www.w3.org/2000/svg">
<g clip-path="url(#clip0)">
<path d="M5.87564 26.25H0.433497V8.72461H5.87564V26.25ZM3.15164 6.33398C1.41179 6.33398 0 4.89258 0 3.15234C0 1.41211 1.41179 0 3.15164 0C4.89149 0 6.30328 1.41211 6.30328 3.15234C6.30328 4.89258 4.89149 6.33398 3.15164 6.33398ZM26.2441 26.25H20.8137V17.7188C20.8137 15.6855 20.7727 13.0781 17.9843 13.0781C15.1548 13.0781 14.7213 15.2871 14.7213 17.5723V26.25H9.28504V8.72461H14.5046V11.1152H14.5807C15.3071 9.73828 17.0821 8.28516 19.73 8.28516C25.2366 8.28516 26.25 11.9121 26.25 16.623V26.25H26.2441Z" fill="black"/>
</g>
<defs>
<clipPath id="clip0">
<rect width="26.25" height="30" fill="white"/>
</clipPath>
</defs>
</svg>
