<svg width="174" height="47" viewBox="0 0 174 47" fill="none" xmlns="http://www.w3.org/2000/svg">
<rect width="174" height="47" fill="#EDBF19"/>
<path d="M17.4366 30.275H22.3016C22.2316 29.1083 21.9516 28.105 21.4616 27.265C20.9716 26.4017 20.3299 25.69 19.5366 25.13C18.7666 24.5467 17.8799 24.115 16.8766 23.835C15.8966 23.555 14.8699 23.415 13.7966 23.415C12.3266 23.415 11.0199 23.66 9.87656 24.15C8.73323 24.64 7.7649 25.3283 6.97156 26.215C6.17823 27.0783 5.57156 28.1167 5.15156 29.33C4.7549 30.52 4.55656 31.815 4.55656 33.215C4.55656 34.5683 4.77823 35.8167 5.22156 36.96C5.6649 38.08 6.28323 39.0483 7.07656 39.865C7.8699 40.6817 8.82656 41.3233 9.94656 41.79C11.0899 42.2333 12.3382 42.455 13.6916 42.455C16.0949 42.455 18.0666 41.825 19.6066 40.565C21.1466 39.305 22.0799 37.4733 22.4066 35.07H17.6116C17.4482 36.19 17.0399 37.0883 16.3866 37.765C15.7566 38.4183 14.8466 38.745 13.6566 38.745C12.8866 38.745 12.2332 38.57 11.6966 38.22C11.1599 37.87 10.7282 37.4267 10.4016 36.89C10.0982 36.33 9.87656 35.7117 9.73656 35.035C9.59656 34.3583 9.52656 33.6933 9.52656 33.04C9.52656 32.3633 9.59656 31.6867 9.73656 31.01C9.87656 30.31 10.1099 29.68 10.4366 29.12C10.7866 28.5367 11.2299 28.07 11.7666 27.72C12.3032 27.3467 12.9682 27.16 13.7616 27.16C15.8849 27.16 17.1099 28.1983 17.4366 30.275ZM35.6442 31.01H27.5592C27.5826 30.66 27.6526 30.2633 27.7692 29.82C27.9092 29.3767 28.1309 28.9567 28.4342 28.56C28.7609 28.1633 29.1809 27.8367 29.6942 27.58C30.2309 27.3 30.8959 27.16 31.6892 27.16C32.9026 27.16 33.8009 27.4867 34.3842 28.14C34.9909 28.7933 35.4109 29.75 35.6442 31.01ZM27.5592 34.16H40.6142C40.7076 32.76 40.5909 31.4183 40.2642 30.135C39.9376 28.8517 39.4009 27.7083 38.6542 26.705C37.9309 25.7017 36.9976 24.9083 35.8542 24.325C34.7109 23.7183 33.3692 23.415 31.8292 23.415C30.4526 23.415 29.1926 23.66 28.0492 24.15C26.9292 24.64 25.9609 25.3167 25.1442 26.18C24.3276 27.02 23.6976 28.0233 23.2542 29.19C22.8109 30.3567 22.5892 31.6167 22.5892 32.97C22.5892 34.37 22.7992 35.6533 23.2192 36.82C23.6626 37.9867 24.2809 38.99 25.0742 39.83C25.8676 40.67 26.8359 41.3233 27.9792 41.79C29.1226 42.2333 30.4059 42.455 31.8292 42.455C33.8826 42.455 35.6326 41.9883 37.0792 41.055C38.5259 40.1217 39.5992 38.57 40.2992 36.4H35.9242C35.7609 36.96 35.3176 37.4967 34.5942 38.01C33.8709 38.5 33.0076 38.745 32.0042 38.745C30.6042 38.745 29.5309 38.3833 28.7842 37.66C28.0376 36.9367 27.6292 35.77 27.5592 34.16ZM41.9519 17.01V42H46.9219V17.01H41.9519ZM54.1953 21.105V17.01H49.2253V21.105H54.1953ZM49.2253 23.905V42H54.1953V23.905H49.2253ZM56.3588 23.905V42H61.3288V32.515C61.3288 30.6717 61.6321 29.3533 62.2388 28.56C62.8454 27.7433 63.8254 27.335 65.1788 27.335C66.3688 27.335 67.1971 27.7083 67.6638 28.455C68.1304 29.1783 68.3638 30.2867 68.3638 31.78V42H73.3338V30.87C73.3338 29.75 73.2288 28.735 73.0188 27.825C72.8321 26.8917 72.4938 26.11 72.0038 25.48C71.5138 24.8267 70.8371 24.325 69.9738 23.975C69.1338 23.6017 68.0488 23.415 66.7188 23.415C65.6688 23.415 64.6421 23.66 63.6388 24.15C62.6354 24.6167 61.8188 25.375 61.1888 26.425H61.0838V23.905H56.3588ZM87.5358 31.01H79.4508C79.4742 30.66 79.5442 30.2633 79.6608 29.82C79.8008 29.3767 80.0225 28.9567 80.3258 28.56C80.6525 28.1633 81.0725 27.8367 81.5858 27.58C82.1225 27.3 82.7875 27.16 83.5808 27.16C84.7942 27.16 85.6925 27.4867 86.2758 28.14C86.8825 28.7933 87.3025 29.75 87.5358 31.01ZM79.4508 34.16H92.5058C92.5992 32.76 92.4825 31.4183 92.1558 30.135C91.8292 28.8517 91.2925 27.7083 90.5458 26.705C89.8225 25.7017 88.8892 24.9083 87.7458 24.325C86.6025 23.7183 85.2608 23.415 83.7208 23.415C82.3442 23.415 81.0842 23.66 79.9408 24.15C78.8208 24.64 77.8525 25.3167 77.0358 26.18C76.2192 27.02 75.5892 28.0233 75.1458 29.19C74.7025 30.3567 74.4808 31.6167 74.4808 32.97C74.4808 34.37 74.6908 35.6533 75.1108 36.82C75.5542 37.9867 76.1725 38.99 76.9658 39.83C77.7592 40.67 78.7275 41.3233 79.8708 41.79C81.0142 42.2333 82.2975 42.455 83.7208 42.455C85.7742 42.455 87.5242 41.9883 88.9708 41.055C90.4175 40.1217 91.4908 38.57 92.1908 36.4H87.8158C87.6525 36.96 87.2092 37.4967 86.4858 38.01C85.7625 38.5 84.8992 38.745 83.8958 38.745C82.4958 38.745 81.4225 38.3833 80.6758 37.66C79.9292 36.9367 79.5208 35.77 79.4508 34.16ZM101.835 17.01V42H106.805V17.01H101.835ZM121.148 31.01H113.063C113.086 30.66 113.156 30.2633 113.273 29.82C113.413 29.3767 113.635 28.9567 113.938 28.56C114.265 28.1633 114.685 27.8367 115.198 27.58C115.735 27.3 116.4 27.16 117.193 27.16C118.406 27.16 119.305 27.4867 119.888 28.14C120.495 28.7933 120.915 29.75 121.148 31.01ZM113.063 34.16H126.118C126.211 32.76 126.095 31.4183 125.768 30.135C125.441 28.8517 124.905 27.7083 124.158 26.705C123.435 25.7017 122.501 24.9083 121.358 24.325C120.215 23.7183 118.873 23.415 117.333 23.415C115.956 23.415 114.696 23.66 113.553 24.15C112.433 24.64 111.465 25.3167 110.648 26.18C109.831 27.02 109.201 28.0233 108.758 29.19C108.315 30.3567 108.093 31.6167 108.093 32.97C108.093 34.37 108.303 35.6533 108.723 36.82C109.166 37.9867 109.785 38.99 110.578 39.83C111.371 40.67 112.34 41.3233 113.483 41.79C114.626 42.2333 115.91 42.455 117.333 42.455C119.386 42.455 121.136 41.9883 122.583 41.055C124.03 40.1217 125.103 38.57 125.803 36.4H121.428C121.265 36.96 120.821 37.4967 120.098 38.01C119.375 38.5 118.511 38.745 117.508 38.745C116.108 38.745 115.035 38.3833 114.288 37.66C113.541 36.9367 113.133 35.77 113.063 34.16ZM139.496 31.01H131.411C131.434 30.66 131.504 30.2633 131.621 29.82C131.761 29.3767 131.982 28.9567 132.286 28.56C132.612 28.1633 133.032 27.8367 133.546 27.58C134.082 27.3 134.747 27.16 135.541 27.16C136.754 27.16 137.652 27.4867 138.236 28.14C138.842 28.7933 139.262 29.75 139.496 31.01ZM131.411 34.16H144.466C144.559 32.76 144.442 31.4183 144.116 30.135C143.789 28.8517 143.252 27.7083 142.506 26.705C141.782 25.7017 140.849 24.9083 139.706 24.325C138.562 23.7183 137.221 23.415 135.681 23.415C134.304 23.415 133.044 23.66 131.901 24.15C130.781 24.64 129.812 25.3167 128.996 26.18C128.179 27.02 127.549 28.0233 127.106 29.19C126.662 30.3567 126.441 31.6167 126.441 32.97C126.441 34.37 126.651 35.6533 127.071 36.82C127.514 37.9867 128.132 38.99 128.926 39.83C129.719 40.67 130.687 41.3233 131.831 41.79C132.974 42.2333 134.257 42.455 135.681 42.455C137.734 42.455 139.484 41.9883 140.931 41.055C142.377 40.1217 143.451 38.57 144.151 36.4H139.776C139.612 36.96 139.169 37.4967 138.446 38.01C137.722 38.5 136.859 38.745 135.856 38.745C134.456 38.745 133.382 38.3833 132.636 37.66C131.889 36.9367 131.481 35.77 131.411 34.16Z" fill="white"/>
</svg>
