<svg width="19" height="30" viewBox="0 0 19 30" fill="none" xmlns="http://www.w3.org/2000/svg">
<g clip-path="url(#clip0)">
<path d="M18.2975 28.1426C17.4943 28.9922 15.3444 30 12.5448 30C5.41009 30 3.86265 24.7969 3.86265 21.7617V13.3242H1.05718C0.732334 13.3242 0.466553 13.0605 0.466553 12.7383V8.75391C0.466553 8.33203 0.732334 7.95703 1.13396 7.81641C4.79584 6.53906 5.94755 3.36328 6.11293 0.955078C6.16018 0.310547 6.49684 0 7.06384 0H11.2514C11.5762 0 11.842 0.263672 11.842 0.585938V7.33594H16.7442C17.069 7.33594 17.3348 7.59375 17.3348 7.91602V12.7031C17.3348 13.0254 17.069 13.2891 16.7442 13.2891H11.8184V21.0938C11.8184 23.0977 13.2182 24.2344 15.8346 23.1914C16.1181 23.0801 16.3662 23.0039 16.5847 23.0625C16.7914 23.1152 16.9273 23.2617 17.0218 23.5254L18.3212 27.293C18.4275 27.5859 18.5161 27.9141 18.2975 28.1426Z" fill="black"/>
</g>
<defs>
<clipPath id="clip0">
<rect width="18.9" height="30" fill="white"/>
</clipPath>
</defs>
</svg>
